<svg width="32" height="33" viewBox="0 0 32 33" fill="none" xmlns="http://www.w3.org/2000/svg">
<g clip-path="url(#clip0_417_359)">
<path d="M16.3254 0.175781C9.6454 0.175781 7.69181 0.182674 7.31229 0.214184C5.94147 0.328162 5.08845 0.544072 4.15917 1.00686C3.44301 1.3626 2.87821 1.77492 2.32077 2.35297C1.30557 3.40708 0.690302 4.70378 0.467582 6.24545C0.359294 6.99361 0.327806 7.14625 0.321406 10.969C0.318945 12.2432 0.321406 13.9201 0.321406 16.1693C0.321406 22.8454 0.32879 24.7978 0.360782 25.177C0.471531 26.5112 0.680722 27.3507 1.12373 28.2689C1.97035 30.0266 3.58728 31.3461 5.49205 31.8385C6.15163 32.0084 6.88008 32.1019 7.81531 32.1463C8.21153 32.1635 12.2502 32.1758 16.2911 32.1758C20.3321 32.1758 24.3734 32.1709 24.7596 32.1512C25.8425 32.1002 26.4713 32.0158 27.1666 31.8361C28.1111 31.5938 28.9913 31.1481 29.7458 30.5303C30.5003 29.9125 31.1109 29.1374 31.5349 28.2591C31.9693 27.3631 32.1895 26.4916 32.2892 25.227C32.3109 24.9513 32.3199 20.5553 32.3199 16.1652C32.3199 11.7745 32.3101 7.38667 32.2885 7.11083C32.1893 5.82603 31.9678 4.96203 31.5195 4.04875C31.1515 3.30097 30.7432 2.74264 30.1499 2.17179C29.0913 1.16049 27.7969 0.545036 26.2542 0.322508C25.507 0.214437 25.3579 0.182434 21.5336 0.175788L16.3254 0.175781Z" fill="url(#paint0_radial_417_359)"/>
<path d="M16.3254 0.175781C9.6454 0.175781 7.69181 0.182674 7.31229 0.214184C5.94147 0.328162 5.08845 0.544072 4.15917 1.00686C3.44301 1.3626 2.87821 1.77492 2.32077 2.35297C1.30557 3.40708 0.690302 4.70378 0.467582 6.24545C0.359294 6.99361 0.327806 7.14625 0.321406 10.969C0.318945 12.2432 0.321406 13.9201 0.321406 16.1693C0.321406 22.8454 0.32879 24.7978 0.360782 25.177C0.471531 26.5112 0.680722 27.3507 1.12373 28.2689C1.97035 30.0266 3.58728 31.3461 5.49205 31.8385C6.15163 32.0084 6.88008 32.1019 7.81531 32.1463C8.21153 32.1635 12.2502 32.1758 16.2911 32.1758C20.3321 32.1758 24.3734 32.1709 24.7596 32.1512C25.8425 32.1002 26.4713 32.0158 27.1666 31.8361C28.1111 31.5938 28.9913 31.1481 29.7458 30.5303C30.5003 29.9125 31.1109 29.1374 31.5349 28.2591C31.9693 27.3631 32.1895 26.4916 32.2892 25.227C32.3109 24.9513 32.3199 20.5553 32.3199 16.1652C32.3199 11.7745 32.3101 7.38667 32.2885 7.11083C32.1893 5.82603 31.9678 4.96203 31.5195 4.04875C31.1515 3.30097 30.7432 2.74264 30.1499 2.17179C29.0913 1.16049 27.7969 0.545036 26.2542 0.322508C25.507 0.214437 25.3579 0.182434 21.5336 0.175788L16.3254 0.175781Z" fill="url(#paint1_radial_417_359)"/>
<path d="M16.3203 21.1634C19.128 21.1634 21.404 18.8874 21.404 16.0798C21.404 13.2721 19.128 10.9961 16.3203 10.9961C13.5127 10.9961 11.2367 13.2721 11.2367 16.0798C11.2367 18.8874 13.5127 21.1634 16.3203 21.1634Z" stroke="white" stroke-width="2.27464"/>
<path d="M21.2191 5.35156H11.4213C8.12186 5.35156 5.44711 8.02631 5.44711 11.3258V21.0252C5.44711 24.3247 8.12186 26.9994 11.4213 26.9994H21.2191C24.5185 26.9994 27.1933 24.3247 27.1933 21.0252V11.3258C27.1933 8.02631 24.5185 5.35156 21.2191 5.35156Z" stroke="white" stroke-width="2.3047"/>
<path d="M22.7899 11.2793C23.5875 11.2793 24.2342 10.6326 24.2342 9.83494C24.2342 9.03727 23.5875 8.39062 22.7899 8.39062C21.9922 8.39062 21.3456 9.03727 21.3456 9.83494C21.3456 10.6326 21.9922 11.2793 22.7899 11.2793Z" fill="white"/>
</g>
<defs>
<radialGradient id="paint0_radial_417_359" cx="0" cy="0" r="1" gradientUnits="userSpaceOnUse" gradientTransform="translate(8.81898 34.6407) rotate(-90) scale(31.7138 29.4965)">
<stop stop-color="#FFDD55"/>
<stop offset="0.1" stop-color="#FFDD55"/>
<stop offset="0.5" stop-color="#FF543E"/>
<stop offset="1" stop-color="#C837AB"/>
</radialGradient>
<radialGradient id="paint1_radial_417_359" cx="0" cy="0" r="1" gradientUnits="userSpaceOnUse" gradientTransform="translate(-5.04203 2.47788) rotate(78.681) scale(14.1764 58.4357)">
<stop stop-color="#3771C8"/>
<stop offset="0.128" stop-color="#3771C8"/>
<stop offset="1" stop-color="#6600FF" stop-opacity="0"/>
</radialGradient>
<clipPath id="clip0_417_359">
<rect width="32" height="32" fill="white" transform="translate(0 0.5)"/>
</clipPath>
</defs>
</svg>
