<svg width="210" height="129" viewBox="0 0 210 129" fill="none" xmlns="http://www.w3.org/2000/svg">
<path d="M14.388 108.602C10.4867 108.602 7.36267 107.869 5.016 106.402C2.66933 104.906 1.496 102.633 1.496 99.582C1.496 97.9687 1.77467 96.7367 2.332 95.886C2.88933 95.0353 3.71067 94.61 4.796 94.61C5.588 94.61 6.23333 94.8153 6.732 95.226C7.23067 95.6367 7.48 96.1647 7.48 96.81C7.48 97.3967 7.436 97.91 7.348 98.35C7.348 98.4673 7.31867 98.6727 7.26 98.966C7.23067 99.2593 7.216 99.5673 7.216 99.89C7.216 101.21 7.876 102.193 9.196 102.838C10.5453 103.483 12.4227 103.806 14.828 103.806C17.3213 103.806 19.272 103.366 20.68 102.486C22.088 101.577 22.792 100.315 22.792 98.702C22.792 97.7047 22.4693 96.854 21.824 96.15C21.1787 95.4167 20.372 94.8153 19.404 94.346C18.436 93.8473 17.072 93.246 15.312 92.542C13.0533 91.662 11.2053 90.826 9.768 90.034C8.36 89.242 7.14267 88.1713 6.116 86.822C5.11867 85.4433 4.62 83.742 4.62 81.718C4.62 79.606 5.17733 77.7287 6.292 76.086C7.436 74.4433 9.064 73.1673 11.176 72.258C13.3173 71.3487 15.8253 70.894 18.7 70.894C20.8413 70.894 22.8067 71.2167 24.596 71.862C26.3853 72.478 27.808 73.4313 28.864 74.722C29.9493 76.0127 30.492 77.5967 30.492 79.474C30.492 81.322 30.2133 82.7153 29.656 83.654C29.0987 84.5927 28.2773 85.062 27.192 85.062C26.4293 85.062 25.784 84.8273 25.256 84.358C24.7573 83.8887 24.508 83.3313 24.508 82.686C24.508 82.1287 24.552 81.6153 24.64 81.146C24.728 80.266 24.772 79.7087 24.772 79.474C24.772 78.242 24.1707 77.3033 22.968 76.658C21.7653 76.0127 20.2693 75.69 18.48 75.69C15.9573 75.69 14.0213 76.1593 12.672 77.098C11.352 78.0073 10.692 79.298 10.692 80.97C10.692 82.0847 11.0293 83.038 11.704 83.83C12.408 84.622 13.2733 85.282 14.3 85.81C15.3267 86.338 16.764 86.9687 18.612 87.702C20.8413 88.6113 22.6307 89.4327 23.98 90.166C25.3293 90.8993 26.4733 91.8967 27.412 93.158C28.38 94.4193 28.864 95.974 28.864 97.822C28.864 101.283 27.544 103.953 24.904 105.83C22.2933 107.678 18.788 108.602 14.388 108.602Z" fill="black"/>
<path d="M123.788 98.438C124.169 98.438 124.463 98.614 124.668 98.966C124.903 99.318 125.02 99.802 125.02 100.418C125.02 101.591 124.741 102.501 124.184 103.146C122.923 104.701 121.544 105.977 120.048 106.974C118.581 107.971 116.909 108.47 115.032 108.47C112.451 108.47 110.529 107.297 109.268 104.95C108.036 102.603 107.42 99.5673 107.42 95.842C107.42 92.2633 107.875 88.186 108.784 83.61C109.723 79.034 111.087 75.1033 112.876 71.818C114.695 68.5327 116.851 66.89 119.344 66.89C120.752 66.89 121.852 67.55 122.644 68.87C123.465 70.1607 123.876 72.0233 123.876 74.458C123.876 77.9487 122.908 81.9967 120.972 86.602C119.036 91.2073 116.411 95.7687 113.096 100.286C113.301 101.489 113.639 102.354 114.108 102.882C114.577 103.381 115.193 103.63 115.956 103.63C117.159 103.63 118.215 103.293 119.124 102.618C120.033 101.914 121.192 100.726 122.6 99.054C122.952 98.6433 123.348 98.438 123.788 98.438ZM118.376 71.246C117.701 71.246 116.939 72.4633 116.088 74.898C115.237 77.3327 114.489 80.354 113.844 83.962C113.199 87.57 112.847 91.0313 112.788 94.346C114.871 90.914 116.528 87.482 117.76 84.05C118.992 80.5887 119.608 77.4353 119.608 74.59C119.608 72.3607 119.197 71.246 118.376 71.246ZM144.96 98.438C145.341 98.438 145.634 98.614 145.84 98.966C146.074 99.318 146.192 99.802 146.192 100.418C146.192 101.591 145.913 102.501 145.356 103.146C144.094 104.701 142.73 105.977 141.264 106.974C139.826 107.971 138.184 108.47 136.336 108.47C134.781 108.47 133.52 107.913 132.552 106.798C130.88 107.883 129.134 108.441 127.316 108.47C126.934 114.131 126.069 118.854 124.72 122.638C123.37 126.451 121.39 128.358 118.78 128.358C117.196 128.358 116.022 127.786 115.26 126.642C114.497 125.498 114.116 123.914 114.116 121.89C114.116 119.015 114.776 115.657 116.096 111.814C117.416 108.001 119.454 103.791 122.212 99.186C122.212 94.9033 122.182 91.926 122.124 90.254C122.094 89.4033 122.432 88.7287 123.136 88.23C123.84 87.7313 124.72 87.482 125.776 87.482C126.392 87.482 126.832 87.614 127.096 87.878C127.389 88.1127 127.55 88.5967 127.58 89.33C127.58 90.0633 127.594 90.606 127.624 90.958C128.562 89.7847 129.486 88.9487 130.396 88.45C131.305 87.922 132.273 87.658 133.3 87.658C134.942 87.658 136.277 88.318 137.304 89.638C138.36 90.958 138.888 92.6887 138.888 94.83C138.888 96.3847 138.638 97.8953 138.14 99.362C137.641 100.829 136.952 102.163 136.072 103.366C136.688 103.542 137.201 103.63 137.612 103.63C138.58 103.63 139.504 103.278 140.384 102.574C141.264 101.87 142.393 100.697 143.772 99.054C144.124 98.6433 144.52 98.438 144.96 98.438ZM127.536 104.246C128.592 104.011 129.56 103.439 130.44 102.53C131.349 101.591 132.068 100.447 132.596 99.098C133.124 97.7193 133.388 96.282 133.388 94.786C133.388 93.906 133.212 93.246 132.86 92.806C132.508 92.3367 132.038 92.102 131.452 92.102C130.396 92.102 129.12 93.2167 127.624 95.446C127.594 96.7367 127.58 98.6287 127.58 101.122C127.58 102.471 127.565 103.513 127.536 104.246ZM119.132 124.046C119.924 124.046 120.584 122.315 121.112 118.854C121.64 115.422 121.977 111.139 122.124 106.006C120.862 108.939 119.865 111.741 119.132 114.41C118.398 117.079 118.032 119.323 118.032 121.142C118.032 122.081 118.149 122.799 118.384 123.298C118.589 123.797 118.838 124.046 119.132 124.046ZM148.411 84.842C147.179 84.842 146.255 84.5633 145.639 84.006C145.023 83.4193 144.715 82.6127 144.715 81.586C144.715 80.5593 145.111 79.7087 145.903 79.034C146.724 78.33 147.736 77.978 148.939 77.978C150.024 77.978 150.904 78.242 151.579 78.77C152.254 79.298 152.591 80.046 152.591 81.014C152.591 82.1873 152.21 83.126 151.447 83.83C150.684 84.5047 149.672 84.842 148.411 84.842ZM148.059 108.47C146.152 108.47 144.759 107.795 143.879 106.446C143.028 105.097 142.603 103.307 142.603 101.078C142.603 99.758 142.764 98.0713 143.087 96.018C143.439 93.9353 143.879 91.9993 144.407 90.21C144.671 89.2713 145.023 88.626 145.463 88.274C145.903 87.922 146.607 87.746 147.575 87.746C149.071 87.746 149.819 88.2447 149.819 89.242C149.819 89.9753 149.54 91.6767 148.983 94.346C148.279 97.5727 147.927 99.758 147.927 100.902C147.927 101.782 148.044 102.457 148.279 102.926C148.514 103.395 148.91 103.63 149.467 103.63C149.995 103.63 150.655 103.263 151.447 102.53C152.239 101.797 153.295 100.638 154.615 99.054C154.967 98.6433 155.363 98.438 155.803 98.438C156.184 98.438 156.478 98.614 156.683 98.966C156.918 99.318 157.035 99.802 157.035 100.418C157.035 101.591 156.756 102.501 156.199 103.146C153.295 106.695 150.582 108.47 148.059 108.47ZM173.099 98.438C173.481 98.438 173.774 98.614 173.979 98.966C174.214 99.318 174.331 99.802 174.331 100.418C174.331 101.591 174.053 102.501 173.495 103.146C172.41 104.466 170.87 105.683 168.875 106.798C166.91 107.913 164.798 108.47 162.539 108.47C159.459 108.47 157.069 107.634 155.367 105.962C153.666 104.29 152.815 102.002 152.815 99.098C152.815 97.074 153.241 95.1967 154.091 93.466C154.942 91.706 156.115 90.3127 157.611 89.286C159.137 88.2593 160.853 87.746 162.759 87.746C164.461 87.746 165.825 88.2593 166.851 89.286C167.878 90.2833 168.391 91.6473 168.391 93.378C168.391 95.402 167.658 97.1473 166.191 98.614C164.754 100.051 162.305 101.195 158.843 102.046C159.577 103.395 160.97 104.07 163.023 104.07C164.343 104.07 165.839 103.615 167.511 102.706C169.213 101.767 170.679 100.55 171.911 99.054C172.263 98.6433 172.659 98.438 173.099 98.438ZM162.011 92.058C160.926 92.058 160.002 92.6887 159.239 93.95C158.506 95.2113 158.139 96.7367 158.139 98.526V98.614C159.87 98.2033 161.234 97.5873 162.231 96.766C163.229 95.9447 163.727 94.9913 163.727 93.906C163.727 93.3487 163.566 92.9087 163.243 92.586C162.95 92.234 162.539 92.058 162.011 92.058ZM173.873 108.47C172.758 108.47 171.966 107.883 171.497 106.71C171.057 105.537 170.837 103.659 170.837 101.078C170.837 97.2647 171.379 93.642 172.465 90.21C172.729 89.3593 173.154 88.7433 173.741 88.362C174.357 87.9513 175.207 87.746 176.293 87.746C176.879 87.746 177.29 87.8193 177.525 87.966C177.759 88.1127 177.877 88.3913 177.877 88.802C177.877 89.2713 177.657 90.3273 177.217 91.97C176.923 93.1433 176.689 94.17 176.513 95.05C176.337 95.93 176.19 97.0153 176.073 98.306C177.041 95.7833 178.126 93.73 179.329 92.146C180.531 90.562 181.705 89.4327 182.849 88.758C184.022 88.0833 185.093 87.746 186.061 87.746C187.967 87.746 188.921 88.6993 188.921 90.606C188.921 91.75 188.598 93.818 187.953 96.81C187.395 99.362 187.117 101.049 187.117 101.87C187.117 103.043 187.542 103.63 188.393 103.63C188.979 103.63 189.669 103.278 190.461 102.574C191.282 101.841 192.367 100.667 193.717 99.054C194.069 98.6433 194.465 98.438 194.905 98.438C195.286 98.438 195.579 98.614 195.785 98.966C196.019 99.318 196.137 99.802 196.137 100.418C196.137 101.591 195.858 102.501 195.301 103.146C194.039 104.701 192.675 105.977 191.209 106.974C189.771 107.971 188.129 108.47 186.281 108.47C184.785 108.47 183.655 108.045 182.893 107.194C182.13 106.314 181.749 105.053 181.749 103.41C181.749 102.589 181.954 101.122 182.365 99.01C182.746 97.162 182.937 95.886 182.937 95.182C182.937 94.7127 182.775 94.478 182.453 94.478C182.071 94.478 181.529 94.9767 180.825 95.974C180.15 96.942 179.446 98.2327 178.713 99.846C178.009 101.459 177.437 103.161 176.997 104.95C176.674 106.329 176.293 107.267 175.853 107.766C175.442 108.235 174.782 108.47 173.873 108.47ZM208.329 99.758C208.71 99.758 209.004 99.934 209.209 100.286C209.444 100.638 209.561 101.122 209.561 101.738C209.561 102.794 209.312 103.703 208.813 104.466C207.992 105.727 206.906 106.71 205.557 107.414C204.237 108.118 202.653 108.47 200.805 108.47C197.989 108.47 195.804 107.634 194.249 105.962C192.694 104.261 191.917 101.973 191.917 99.098C191.917 97.074 192.342 95.1967 193.193 93.466C194.044 91.706 195.217 90.3127 196.713 89.286C198.238 88.2593 199.954 87.746 201.861 87.746C203.562 87.746 204.926 88.2593 205.953 89.286C206.98 90.2833 207.493 91.6473 207.493 93.378C207.493 95.402 206.76 97.1473 205.293 98.614C203.856 100.051 201.392 101.195 197.901 102.046C198.605 103.395 199.793 104.07 201.465 104.07C202.668 104.07 203.65 103.791 204.413 103.234C205.205 102.677 206.114 101.738 207.141 100.418C207.493 99.978 207.889 99.758 208.329 99.758ZM201.113 92.058C200.028 92.058 199.104 92.6887 198.341 93.95C197.608 95.2113 197.241 96.7367 197.241 98.526V98.614C198.972 98.2033 200.336 97.5873 201.333 96.766C202.33 95.9447 202.829 94.9913 202.829 93.906C202.829 93.3487 202.668 92.9087 202.345 92.586C202.052 92.234 201.641 92.058 201.113 92.058Z" fill="black"/>
<g filter="url(#filter0_d_417_301)">
<circle cx="64.9358" cy="58.049" r="20.5815" stroke="black" stroke-width="1.70183" shape-rendering="crispEdges"/>
</g>
<g filter="url(#filter1_d_417_301)">
<circle cx="65.0954" cy="58.0493" r="16.0078" stroke="black" stroke-width="1.27637" shape-rendering="crispEdges"/>
</g>
<path d="M55.9166 29.4461C55.0588 33.1197 56.75 34.8061 58.4427 37.2103C61.6649 37.1446 61.6122 35.0797 64.919 36.4917C64.919 36.4917 62.2341 33.7877 62.1985 30.5616C62.1628 27.3354 64.325 25.5244 62.585 21.7937C59.7146 17.1709 57.8344 17.408 55.9705 12.104C54.8785 12.7157 54.6404 14.3567 56.2172 17.7375C57.631 20.7687 57.5751 19.7301 58.2291 22.0511C59.1857 25.446 56.6792 26.1806 55.9166 29.4461Z" stroke="url(#paint0_linear_417_301)" stroke-width="1.49935"/>
<path d="M38.0728 45.0333C40.0429 48.2505 42.4311 48.2627 45.3247 48.7848C47.5719 46.4746 46.0838 45.042 49.4293 43.724C49.4293 43.724 45.6189 43.6855 43.3273 41.4145C41.0357 39.1434 41.3024 36.3356 37.4433 34.9027C32.1531 33.6289 30.9814 35.1184 25.929 32.6527C25.5815 33.8552 26.5647 35.1904 30.062 36.4889C33.1974 37.6531 32.4281 36.9532 34.5239 38.1457C37.5896 39.89 36.3216 42.1735 38.0728 45.0333Z" stroke="url(#paint1_linear_417_301)" stroke-width="1.49935"/>
<path d="M37.2904 67.9203C40.9932 68.6424 42.6161 66.8903 44.9564 65.1102C44.7722 61.8926 42.7106 62.0213 44 58.6648C44 58.6648 41.3966 61.4473 38.174 61.6017C34.9513 61.7561 33.0619 59.662 29.3979 61.5381C24.8838 64.5767 25.1899 66.4469 19.9581 68.5047C20.6096 69.5735 22.2582 69.751 25.5788 68.0508C28.5558 66.5265 27.52 66.6205 29.8153 65.8816C33.1728 64.8007 33.9991 67.2785 37.2904 67.9203Z" stroke="url(#paint2_linear_417_301)" stroke-width="1.49935"/>
<path d="M50.9681 84.9165C54.3298 83.2045 54.529 80.8246 55.2761 77.9808C53.1491 75.5595 51.6043 76.9308 50.5525 73.4924C50.5525 73.4924 50.2156 77.288 47.772 79.3947C45.3284 81.5013 42.5501 81.0155 40.8193 84.7504C39.135 89.9246 40.5281 91.2094 37.6742 96.0532C38.8457 96.4938 40.2539 95.6181 41.8224 92.2334C43.2287 89.1988 42.4707 89.9109 43.8237 87.9149C45.8028 84.9953 47.98 86.4383 50.9681 84.9165Z" stroke="url(#paint3_linear_417_301)" stroke-width="1.49935"/>
<path d="M74.1381 86.8677C75.2034 83.2487 73.6107 81.469 72.0574 78.9725C68.8367 78.8549 68.772 80.9195 65.5507 79.3217C65.5507 79.3217 68.0776 82.174 67.9298 85.397C67.7821 88.6199 65.5204 90.3052 67.0456 94.1286C69.6486 98.9072 71.5392 98.7773 73.0986 104.179C74.2236 103.63 74.5546 102.005 73.1725 98.5402C71.9333 95.4336 71.93 96.4737 71.4091 94.1193C70.647 90.6755 73.1912 90.0846 74.1381 86.8677Z" stroke="url(#paint4_linear_417_301)" stroke-width="1.49935"/>
<path d="M80.7582 32.1977C77.2641 33.62 76.8648 35.9747 75.8804 38.7453C77.7957 41.3374 79.4506 40.1013 80.2086 43.6162C80.2086 43.6162 80.8645 39.8625 83.4771 37.9695C86.0897 36.0764 88.8171 36.7949 90.8568 33.2193C92.9716 28.2056 91.6918 26.808 94.9442 22.2222C93.814 21.6843 92.337 22.438 90.4885 25.6784C88.8313 28.5836 89.6467 27.938 88.1301 29.8127C85.9118 32.5549 83.8641 30.9334 80.7582 32.1977Z" stroke="url(#paint5_linear_417_301)" stroke-width="1.49935"/>
<path d="M94.3903 51.515C91.0772 49.7109 89.0017 50.8927 86.2339 51.8849C85.4401 55.0085 87.4447 55.5069 85.2039 58.319C85.2039 58.319 88.5247 56.4501 91.6441 57.2738C94.7635 58.0976 95.9342 60.6636 99.9932 59.9786C105.213 58.4413 105.485 56.5657 111.093 56.1798C110.794 54.9644 109.276 54.2984 105.597 54.9192C102.299 55.4757 103.315 55.6981 100.904 55.7112C97.3767 55.7303 97.3353 53.1187 94.3903 51.515Z" stroke="url(#paint6_linear_417_301)" stroke-width="1.49935"/>
<path d="M90.903 73.7067C89.5721 70.1767 87.2287 69.7163 84.4845 68.6602C81.8435 70.5073 83.0361 72.1939 79.5027 72.8602C79.5027 72.8602 83.2381 73.6135 85.0625 76.2744C86.8869 78.9354 86.0977 81.6432 89.619 83.7753C94.576 86.0198 96.0065 84.7768 100.506 88.1474C101.073 87.0316 100.358 85.5355 97.167 83.6033C94.3059 81.871 94.9301 82.703 93.0955 81.1381C90.4119 78.8492 92.086 76.8444 90.903 73.7067Z" stroke="url(#paint7_linear_417_301)" stroke-width="1.49935"/>
<path d="M26.6372 85.3111L44.8474 66.5059C46.2686 69.7393 47.3784 71.2761 50.0852 73.3905L26.6372 85.3111Z" stroke="url(#paint8_linear_417_301)" stroke-width="1.49935" stroke-miterlimit="6.07152"/>
<path d="M18.3317 49.4969L44.5087 49.6035C43.1611 52.8683 42.8216 54.7333 43.1717 58.1502L18.3317 49.4969Z" stroke="url(#paint9_linear_417_301)" stroke-width="1.49935" stroke-miterlimit="6.07152"/>
<path d="M38.6595 18.8496L56.8549 37.6172C53.4008 39.0236 51.728 40.1342 49.3422 42.8631L38.6595 18.8496Z" stroke="url(#paint10_linear_417_301)" stroke-width="1.49935" stroke-miterlimit="6.07152"/>
<path d="M75.7057 12.1777L74.7172 38.2988C71.3135 36.7745 69.3548 36.3331 65.7336 36.4948L75.7057 12.1777Z" stroke="url(#paint11_linear_417_301)" stroke-width="1.49935" stroke-miterlimit="6.07152"/>
<path d="M106.36 36.2194L84.9163 51.168C84.0822 47.533 83.2544 45.7037 80.9436 42.911L106.36 36.2194Z" stroke="url(#paint12_linear_417_301)" stroke-width="1.49935" stroke-miterlimit="6.07152"/>
<path d="M109.499 71.9559L83.7092 67.6914C85.6494 64.5064 86.3335 62.6187 86.6283 59.0059L109.499 71.9559Z" stroke="url(#paint13_linear_417_301)" stroke-width="1.49935" stroke-miterlimit="6.07152"/>
<path d="M89.1645 98.6397L72.5409 78.4668C76.0971 77.3433 77.8539 76.3712 80.4519 73.8434L89.1645 98.6397Z" stroke="url(#paint14_linear_417_301)" stroke-width="1.49935" stroke-miterlimit="6.07152"/>
<path d="M56.0148 104.554L56.4449 78.418C59.8804 79.8692 61.8481 80.2687 65.465 80.0296L56.0148 104.554Z" stroke="url(#paint15_linear_417_301)" stroke-width="1.49935" stroke-miterlimit="6.07152"/>
<line x1="52.8823" y1="47.9939" x2="61.6042" y2="62.8849" stroke="black" stroke-width="1.27637"/>
<line x1="50.098" y1="62.8345" x2="68.7118" y2="62.8345" stroke="black" stroke-width="1.27637"/>
<line x1="62.7333" y1="73.5854" x2="71.987" y2="57.4121" stroke="black" stroke-width="1.27637"/>
<line x1="79.0588" y1="66.663" x2="68.1414" y2="51.5627" stroke="black" stroke-width="1.27637"/>
<line x1="80.2597" y1="51.8022" x2="61.6285" y2="51.5081" stroke="black" stroke-width="1.27637"/>
<line x1="67.8945" y1="42.2159" x2="58.135" y2="57.5401" stroke="black" stroke-width="1.27637"/>
<path d="M46.7029 108.191C46.6699 108.304 46.7345 108.422 46.8473 108.455C46.96 108.488 47.0782 108.424 47.1112 108.311L46.7029 108.191ZM52.5975 88.0595L52.5377 88.2636L52.946 88.3832L53.0058 88.179L52.5975 88.0595ZM51.9341 91.8394L51.9938 91.6352L51.5855 91.5157L51.5257 91.7198L51.9341 91.8394ZM50.454 95.3802L50.3942 95.5843L50.8025 95.7039L50.8623 95.4997L50.454 95.3802ZM49.7906 99.1601L49.8503 98.9559L49.442 98.8364L49.3822 99.0405L49.7906 99.1601ZM48.3105 102.701L48.2507 102.905L48.659 103.025L48.7188 102.82L48.3105 102.701ZM47.6471 106.481L47.7068 106.277L47.2985 106.157L47.2387 106.361L47.6471 106.481ZM53.1334 86.2293L52.5975 88.0595L53.0058 88.179L53.5417 86.3488L53.1334 86.2293ZM51.5257 91.7198L50.454 95.3802L50.8623 95.4997L51.9341 91.8394L51.5257 91.7198ZM49.3822 99.0405L48.3105 102.701L48.7188 102.82L49.7906 99.1601L49.3822 99.0405ZM47.2387 106.361L46.7029 108.191L47.1112 108.311L47.6471 106.481L47.2387 106.361Z" fill="black"/>
<path d="M25.7759 95.8511C25.6928 95.9341 25.6928 96.0688 25.7758 96.1519C25.8589 96.2351 25.9936 96.2351 26.0767 96.1521L25.7759 95.8511ZM40.6147 81.0236L40.4642 81.174L40.7649 81.475L40.9154 81.3246L40.6147 81.0236ZM38.2175 84.0205L38.3679 83.8701L38.0672 83.5692L37.9167 83.7195L38.2175 84.0205ZM35.2188 86.4154L35.0683 86.5658L35.369 86.8668L35.5195 86.7164L35.2188 86.4154ZM32.8216 89.4123L32.972 89.2619L32.6713 88.961L32.5208 89.1113L32.8216 89.4123ZM29.8229 91.8072L29.6724 91.9576L29.9731 92.2586L30.1236 92.1082L29.8229 91.8072ZM27.4256 94.8041L27.5761 94.6537L27.2754 94.3528L27.1249 94.5032L27.4256 94.8041ZM41.9636 79.6757L40.6147 81.0236L40.9154 81.3246L42.2644 79.9767L41.9636 79.6757ZM37.9167 83.7195L35.2188 86.4154L35.5195 86.7164L38.2175 84.0205L37.9167 83.7195ZM32.5208 89.1113L29.8229 91.8072L30.1236 92.1082L32.8216 89.4123L32.5208 89.1113ZM27.1249 94.5032L25.7759 95.8511L26.0767 96.1521L27.4256 94.8041L27.1249 94.5032Z" fill="black"/>
<path d="M16.0037 82.612C15.9034 82.6732 15.8718 82.8041 15.933 82.9044C15.9942 83.0047 16.1252 83.0363 16.2254 82.9751L16.0037 82.612ZM33.9057 71.6777L33.7242 71.7886L33.9459 72.1517L34.1275 72.0408L33.9057 71.6777ZM30.8726 74.0289L31.0541 73.918L30.8323 73.5549L30.6508 73.6658L30.8726 74.0289ZM27.3959 75.6538L27.2143 75.7647L27.4361 76.1278L27.6176 76.0169L27.3959 75.6538ZM24.3627 78.0049L24.5443 77.8941L24.3225 77.531L24.1409 77.6419L24.3627 78.0049ZM20.886 79.6299L20.7045 79.7408L20.9263 80.1039L21.1078 79.993L20.886 79.6299ZM17.8529 81.981L18.0344 81.8702L17.8127 81.5071L17.6311 81.618L17.8529 81.981ZM35.5332 70.6837L33.9057 71.6777L34.1275 72.0408L35.7549 71.0468L35.5332 70.6837ZM30.6508 73.6658L27.3959 75.6538L27.6176 76.0169L30.8726 74.0289L30.6508 73.6658ZM24.1409 77.6419L20.886 79.6299L21.1078 79.993L24.3627 78.0049L24.1409 77.6419ZM17.6311 81.618L16.0037 82.612L16.2254 82.9751L17.8529 81.981L17.6311 81.618Z" fill="black"/>
<path d="M12.0236 57.6232C11.9061 57.621 11.8091 57.7144 11.8068 57.8319C11.8046 57.9493 11.898 58.0464 12.0155 58.0486L12.0236 57.6232ZM32.9969 58.0243L32.7842 58.0202L32.7761 58.4456L32.9888 58.4497L32.9969 58.0243ZM29.1755 58.3767L29.3882 58.3808L29.3963 57.9554L29.1836 57.9514L29.1755 58.3767ZM25.3703 57.8784L25.1576 57.8744L25.1494 58.2998L25.3621 58.3038L25.3703 57.8784ZM21.5488 58.2309L21.7615 58.235L21.7696 57.8096L21.5569 57.8055L21.5488 58.2309ZM17.7436 57.7326L17.5309 57.7285L17.5228 58.1539L17.7355 58.158L17.7436 57.7326ZM13.9221 58.0851L14.1348 58.0891L14.143 57.6638L13.9303 57.6597L13.9221 58.0851ZM34.9036 58.0607L32.9969 58.0243L32.9888 58.4497L34.8955 58.4861L34.9036 58.0607ZM29.1836 57.9514L25.3703 57.8784L25.3621 58.3038L29.1755 58.3767L29.1836 57.9514ZM21.5569 57.8055L17.7436 57.7326L17.7355 58.158L21.5488 58.2309L21.5569 57.8055ZM13.9303 57.6597L12.0236 57.6232L12.0155 58.0486L13.9221 58.0851L13.9303 57.6597Z" fill="black"/>
<path d="M15.2695 40.9863C15.1566 40.9538 15.0387 41.0189 15.0062 41.1318C14.9736 41.2447 15.0387 41.3626 15.1516 41.3951L15.2695 40.9863ZM35.4249 46.8003L35.2205 46.7413L35.1026 47.1501L35.307 47.2091L35.4249 46.8003ZM31.6424 46.152L31.8468 46.2109L31.9647 45.8021L31.7603 45.7432L31.6424 46.152ZM28.0957 44.6861L27.8913 44.6272L27.7733 45.0359L27.9777 45.0949L28.0957 44.6861ZM24.3131 44.0378L24.5175 44.0968L24.6354 43.688L24.431 43.629L24.3131 44.0378ZM20.7664 42.572L20.562 42.513L20.4441 42.9218L20.6485 42.9807L20.7664 42.572ZM16.9839 41.9237L17.1883 41.9826L17.3062 41.5738L17.1018 41.5149L16.9839 41.9237ZM37.2572 47.3288L35.4249 46.8003L35.307 47.2091L37.1393 47.7376L37.2572 47.3288ZM31.7603 45.7432L28.0957 44.6861L27.9777 45.0949L31.6424 46.152L31.7603 45.7432ZM24.431 43.629L20.7664 42.572L20.6485 42.9807L24.3131 44.0378L24.431 43.629ZM17.1018 41.5149L15.2695 40.9863L15.1516 41.3951L16.9839 41.9237L17.1018 41.5149Z" fill="black"/>
<path d="M29.5174 20.9466C29.4402 20.858 29.3058 20.8488 29.2172 20.926C29.1287 21.0032 29.1194 21.1375 29.1966 21.2261L29.5174 20.9466ZM43.298 36.7623L43.1582 36.6019L42.8375 36.8814L42.9772 37.0418L43.298 36.7623ZM40.4716 34.1662L40.6114 34.3266L40.9322 34.0471L40.7924 33.8867L40.4716 34.1662ZM38.2869 31.0111L38.1471 30.8508L37.8263 31.1303L37.9661 31.2906L38.2869 31.0111ZM35.4605 28.4151L35.6003 28.5754L35.921 28.2959L35.7813 28.1356L35.4605 28.4151ZM33.2757 25.26L33.136 25.0996L32.8152 25.3791L32.9549 25.5395L33.2757 25.26ZM30.4494 22.6639L30.5891 22.8243L30.9099 22.5448L30.7702 22.3844L30.4494 22.6639ZM44.5508 38.2001L43.298 36.7623L42.9772 37.0418L44.23 38.4796L44.5508 38.2001ZM40.7924 33.8867L38.2869 31.0111L37.9661 31.2906L40.4716 34.1662L40.7924 33.8867ZM35.7813 28.1356L33.2757 25.26L32.9549 25.5395L35.4605 28.4151L35.7813 28.1356ZM30.7702 22.3844L29.5174 20.9466L29.1966 21.2261L30.4494 22.6639L30.7702 22.3844Z" fill="black"/>
<path d="M46.5646 10.2198C46.5261 10.1088 46.4049 10.0501 46.2939 10.0886C46.1829 10.1272 46.1242 10.2484 46.1627 10.3594L46.5646 10.2198ZM53.444 30.0369L53.3742 29.8359L52.9723 29.9755L53.042 30.1764L53.444 30.0369ZM51.7913 26.5733L51.861 26.7743L52.2629 26.6348L52.1932 26.4338L51.7913 26.5733ZM50.9424 22.8307L50.8726 22.6297L50.4707 22.7692L50.5405 22.9702L50.9424 22.8307ZM49.2897 19.3671L49.3594 19.5681L49.7614 19.4285L49.6916 19.2276L49.2897 19.3671ZM48.4408 15.6245L48.371 15.4235L47.9691 15.563L48.0389 15.764L48.4408 15.6245ZM46.7881 12.1609L46.8579 12.3619L47.2598 12.2223L47.19 12.0214L46.7881 12.1609ZM54.0694 31.8384L53.444 30.0369L53.042 30.1764L53.6674 31.978L54.0694 31.8384ZM52.1932 26.4338L50.9424 22.8307L50.5405 22.9702L51.7913 26.5733L52.1932 26.4338ZM49.6916 19.2276L48.4408 15.6245L48.0389 15.764L49.2897 19.3671L49.6916 19.2276ZM47.19 12.0214L46.5646 10.2198L46.1627 10.3594L46.7881 12.1609L47.19 12.0214Z" fill="black"/>
<path d="M68.7541 8.19003C68.7685 8.07343 68.6857 7.96722 68.5691 7.95279C68.4525 7.93837 68.3463 8.0212 68.3318 8.1378L68.7541 8.19003ZM66.1789 29.0085L66.205 28.7974L65.7827 28.7452L65.7566 28.9563L66.1789 29.0085ZM66.2249 25.1711L66.1987 25.3822L66.621 25.4345L66.6471 25.2233L66.2249 25.1711ZM67.1153 21.4382L67.1414 21.227L66.7192 21.1748L66.6931 21.3859L67.1153 21.4382ZM67.1613 17.6008L67.1352 17.8119L67.5574 17.8641L67.5835 17.653L67.1613 17.6008ZM68.0518 13.8678L68.0779 13.6567L67.6556 13.6045L67.6295 13.8156L68.0518 13.8678ZM68.0977 10.0304L68.0716 10.2415L68.4939 10.2937L68.52 10.0826L68.0977 10.0304ZM65.9448 30.9011L66.1789 29.0085L65.7566 28.9563L65.5225 30.8489L65.9448 30.9011ZM66.6471 25.2233L67.1153 21.4382L66.6931 21.3859L66.2249 25.1711L66.6471 25.2233ZM67.5835 17.653L68.0518 13.8678L67.6295 13.8156L67.1613 17.6008L67.5835 17.653ZM68.52 10.0826L68.7541 8.19003L68.3318 8.1378L68.0977 10.0304L68.52 10.0826Z" fill="black"/>
<path d="M89.0857 13.1134C89.1459 13.0125 89.113 12.8819 89.0121 12.8217C88.9112 12.7614 88.7806 12.7944 88.7204 12.8952L89.0857 13.1134ZM78.3283 31.1223L78.4374 30.9397L78.0721 30.7215L77.963 30.9041L78.3283 31.1223ZM79.9189 27.6298L79.8098 27.8124L80.1751 28.0306L80.2842 27.848L79.9189 27.6298ZM82.2401 24.5736L82.3491 24.391L81.9839 24.1728L81.8748 24.3554L82.2401 24.5736ZM83.8307 21.0811L83.7216 21.2637L84.0869 21.4819L84.1959 21.2993L83.8307 21.0811ZM86.1518 18.0249L86.2609 17.8423L85.8957 17.6241L85.7866 17.8067L86.1518 18.0249ZM87.7425 14.5324L87.6334 14.715L87.9986 14.9332L88.1077 14.7506L87.7425 14.5324ZM77.3504 32.7595L78.3283 31.1223L77.963 30.9041L76.9851 32.5413L77.3504 32.7595ZM80.2842 27.848L82.2401 24.5736L81.8748 24.3554L79.9189 27.6298L80.2842 27.848ZM84.1959 21.2993L86.1518 18.0249L85.7866 17.8067L83.8307 21.0811L84.1959 21.2993ZM88.1077 14.7506L89.0857 13.1134L88.7204 12.8952L87.7425 14.5324L88.1077 14.7506Z" fill="black"/>
<path d="M107.713 26.6907C107.813 26.6277 107.842 26.4962 107.779 26.3971C107.716 26.2979 107.585 26.2686 107.485 26.3316L107.713 26.6907ZM90.0066 37.9383L90.1862 37.8242L89.9581 37.4651L89.7785 37.5792L90.0066 37.9383ZM92.9979 35.5342L92.8184 35.6482L93.0465 36.0073L93.226 35.8933L92.9979 35.5342ZM96.4455 33.8483L96.625 33.7342L96.3969 33.3751L96.2173 33.4891L96.4455 33.8483ZM99.4368 31.4441L99.2572 31.5582L99.4853 31.9173L99.6649 31.8033L99.4368 31.4441ZM102.884 29.7582L103.064 29.6442L102.836 29.285L102.656 29.3991L102.884 29.7582ZM105.876 27.3541L105.696 27.4681L105.924 27.8273L106.104 27.7132L105.876 27.3541ZM88.3969 38.9608L90.0066 37.9383L89.7785 37.5792L88.1688 38.6017L88.3969 38.9608ZM93.226 35.8933L96.4455 33.8483L96.2173 33.4891L92.9979 35.5342L93.226 35.8933ZM99.6649 31.8033L102.884 29.7582L102.656 29.3991L99.4368 31.4441L99.6649 31.8033ZM106.104 27.7132L107.713 26.6907L107.485 26.3316L105.876 27.3541L106.104 27.7132Z" fill="black"/>
<path d="M116.181 45.3369C116.298 45.3204 116.379 45.2127 116.362 45.0964C116.346 44.9801 116.238 44.8992 116.122 44.9157L116.181 45.3369ZM95.4126 48.2862L95.6232 48.2563L95.5634 47.8351L95.3528 47.865L95.4126 48.2862ZM99.1289 47.3288L98.9183 47.3587L98.9781 47.7799L99.1888 47.75L99.1289 47.3288ZM102.965 47.2138L103.176 47.1839L103.116 46.7626L102.905 46.7925L102.965 47.2138ZM106.681 46.2563L106.471 46.2862L106.53 46.7074L106.741 46.6775L106.681 46.2563ZM110.517 46.1413L110.728 46.1114L110.668 45.6901L110.457 45.72L110.517 46.1413ZM114.234 45.1838L114.023 45.2137L114.083 45.6349L114.293 45.605L114.234 45.1838ZM93.5245 48.5544L95.4126 48.2862L95.3528 47.865L93.4647 48.1331L93.5245 48.5544ZM99.1888 47.75L102.965 47.2138L102.905 46.7925L99.1289 47.3288L99.1888 47.75ZM106.741 46.6775L110.517 46.1413L110.457 45.72L106.681 46.2563L106.741 46.6775ZM114.293 45.605L116.181 45.3369L116.122 44.9157L114.234 45.1838L114.293 45.605Z" fill="black"/>
<path d="M114.132 68.0668C114.243 68.1076 114.365 68.0514 114.406 67.9413C114.447 67.8311 114.39 67.7087 114.28 67.6678L114.132 68.0668ZM94.4642 60.7727L94.6636 60.8467L94.8116 60.4478L94.6121 60.3738L94.4642 60.7727ZM98.1881 61.7L97.9887 61.626L97.8408 62.0249L98.0402 62.0989L98.1881 61.7ZM101.616 63.4251L101.816 63.4991L101.964 63.1001L101.764 63.0262L101.616 63.4251ZM105.34 64.3524L105.141 64.2784L104.993 64.6773L105.192 64.7513L105.34 64.3524ZM108.768 66.0775L108.968 66.1514L109.116 65.7525L108.916 65.6786L108.768 66.0775ZM112.492 67.0048L112.293 66.9308L112.145 67.3297L112.344 67.4037L112.492 67.0048ZM92.6762 60.1096L94.4642 60.7727L94.6121 60.3738L92.8241 59.7107L92.6762 60.1096ZM98.0402 62.0989L101.616 63.4251L101.764 63.0262L98.1881 61.7L98.0402 62.0989ZM105.192 64.7513L108.768 66.0775L108.916 65.6786L105.34 64.3524L105.192 64.7513ZM112.344 67.4037L114.132 68.0668L114.28 67.6678L112.492 67.0048L112.344 67.4037Z" fill="black"/>
<path d="M111.487 84.4312C111.584 84.4978 111.716 84.4732 111.783 84.3764C111.849 84.2796 111.825 84.1472 111.728 84.0806L111.487 84.4312ZM94.201 72.5467L94.3763 72.6672L94.6174 72.3166L94.4421 72.1961L94.201 72.5467ZM97.585 74.3569L97.4097 74.2364L97.1686 74.587L97.3439 74.7075L97.585 74.3569ZM100.487 76.8684L100.662 76.9889L100.903 76.6383L100.728 76.5178L100.487 76.8684ZM103.871 78.6786L103.695 78.5581L103.454 78.9086L103.63 79.0292L103.871 78.6786ZM106.773 81.19L106.948 81.3105L107.189 80.9599L107.014 80.8394L106.773 81.19ZM110.156 83.0002L109.981 82.8797L109.74 83.2303L109.915 83.3508L110.156 83.0002ZM92.6296 71.4663L94.201 72.5467L94.4421 72.1961L92.8706 71.1157L92.6296 71.4663ZM97.3439 74.7075L100.487 76.8684L100.728 76.5178L97.585 74.3569L97.3439 74.7075ZM103.63 79.0292L106.773 81.19L107.014 80.8394L103.871 78.6786L103.63 79.0292ZM109.915 83.3508L111.487 84.4312L111.728 84.0806L110.156 83.0002L109.915 83.3508Z" fill="black"/>
<path d="M99.2862 98.3117C99.3621 98.4014 99.4963 98.4126 99.586 98.3367C99.6757 98.2608 99.6869 98.1266 99.611 98.0369L99.2862 98.3117ZM85.736 82.2983L85.8734 82.4607L86.1982 82.1858L86.0607 82.0234L85.736 82.2983ZM88.5244 84.935L88.387 84.7726L88.0622 85.0474L88.1996 85.2098L88.5244 84.935ZM90.6633 88.1213L90.8007 88.2837L91.1255 88.0089L90.9881 87.8465L90.6633 88.1213ZM93.4518 90.7581L93.3144 90.5957L92.9896 90.8705L93.127 91.0329L93.4518 90.7581ZM95.5907 93.9444L95.7281 94.1068L96.0529 93.832L95.9155 93.6696L95.5907 93.9444ZM98.3792 96.5811L98.2418 96.4188L97.917 96.6936L98.0544 96.856L98.3792 96.5811ZM84.5041 80.8425L85.736 82.2983L86.0607 82.0234L84.8289 80.5677L84.5041 80.8425ZM88.1996 85.2098L90.6633 88.1213L90.9881 87.8465L88.5244 84.935L88.1996 85.2098ZM93.127 91.0329L95.5907 93.9444L95.9155 93.6696L93.4518 90.7581L93.127 91.0329ZM98.0544 96.856L99.2862 98.3117L99.611 98.0369L98.3792 96.5811L98.0544 96.856Z" fill="black"/>
<path d="M82.166 108.522C82.1949 108.636 82.3107 108.705 82.4246 108.676C82.5384 108.647 82.6073 108.531 82.5784 108.418L82.166 108.522ZM77.0053 88.1898L77.0576 88.396L77.47 88.2913L77.4177 88.0851L77.0053 88.1898ZM78.356 91.7819L78.3036 91.5757L77.8913 91.6804L77.9436 91.8866L78.356 91.7819ZM78.8819 95.5834L78.9342 95.7896L79.3466 95.6849L79.2943 95.4787L78.8819 95.5834ZM80.2326 99.1756L80.1803 98.9694L79.7679 99.074L79.8202 99.2802L80.2326 99.1756ZM80.7585 102.977L80.8109 103.183L81.2233 103.079L81.1709 102.872L80.7585 102.977ZM82.1092 106.569L82.0569 106.363L81.6445 106.468L81.6969 106.674L82.1092 106.569ZM76.5361 86.3414L77.0053 88.1898L77.4177 88.0851L76.9485 86.2367L76.5361 86.3414ZM77.9436 91.8866L78.8819 95.5834L79.2943 95.4787L78.356 91.7819L77.9436 91.8866ZM79.8202 99.2802L80.7585 102.977L81.1709 102.872L80.2326 99.1756L79.8202 99.2802ZM81.6969 106.674L82.166 108.522L82.5784 108.418L82.1092 106.569L81.6969 106.674Z" fill="black"/>
<path d="M63.0751 110.487C63.067 110.604 63.1554 110.706 63.2726 110.714C63.3898 110.722 63.4914 110.633 63.4995 110.516L63.0751 110.487ZM64.5217 89.5597L64.5071 89.7719L64.9315 89.8012L64.9462 89.589L64.5217 89.5597ZM64.6832 93.394L64.6978 93.1817L64.2734 93.1524L64.2587 93.3646L64.6832 93.394ZM63.9957 97.1696L63.981 97.3818L64.4055 97.4111L64.4201 97.1989L63.9957 97.1696ZM64.1571 101.004L64.1718 100.792L63.7473 100.762L63.7327 100.975L64.1571 101.004ZM63.4696 104.779L63.455 104.992L63.8794 105.021L63.8941 104.809L63.4696 104.779ZM63.631 108.614L63.6457 108.402L63.2213 108.372L63.2066 108.584L63.631 108.614ZM64.6533 87.6572L64.5217 89.5597L64.9462 89.589L65.0777 87.6865L64.6533 87.6572ZM64.2587 93.3646L63.9957 97.1696L64.4201 97.1989L64.6832 93.394L64.2587 93.3646ZM63.7327 100.975L63.4696 104.779L63.8941 104.809L64.1571 101.004L63.7327 100.975ZM63.2066 108.584L63.0751 110.487L63.4995 110.516L63.631 108.614L63.2066 108.584Z" fill="black"/>
<defs>
<filter id="filter0_d_417_301" x="31.2183" y="27.6826" width="67.4351" height="67.4335" filterUnits="userSpaceOnUse" color-interpolation-filters="sRGB">
<feFlood flood-opacity="0" result="BackgroundImageFix"/>
<feColorMatrix in="SourceAlpha" type="matrix" values="0 0 0 0 0 0 0 0 0 0 0 0 0 0 0 0 0 0 127 0" result="hardAlpha"/>
<feOffset dy="3.35048"/>
<feGaussianBlur stdDeviation="6.14255"/>
<feComposite in2="hardAlpha" operator="out"/>
<feColorMatrix type="matrix" values="0 0 0 0 0.917647 0 0 0 0 0.960784 0 0 0 0 0.305882 0 0 0 1 0"/>
<feBlend mode="normal" in2="BackgroundImageFix" result="effect1_dropShadow_417_301"/>
<feBlend mode="normal" in="SourceGraphic" in2="effect1_dropShadow_417_301" result="shape"/>
</filter>
<filter id="filter1_d_417_301" x="48.2894" y="41.4023" width="33.6121" height="33.6129" filterUnits="userSpaceOnUse" color-interpolation-filters="sRGB">
<feFlood flood-opacity="0" result="BackgroundImageFix"/>
<feColorMatrix in="SourceAlpha" type="matrix" values="0 0 0 0 0 0 0 0 0 0 0 0 0 0 0 0 0 0 127 0" result="hardAlpha"/>
<feOffset dy="0.159977"/>
<feGaussianBlur stdDeviation="0.0799883"/>
<feComposite in2="hardAlpha" operator="out"/>
<feColorMatrix type="matrix" values="0 0 0 0 0 0 0 0 0 0 0 0 0 0 0 0 0 0 0.25 0"/>
<feBlend mode="normal" in2="BackgroundImageFix" result="effect1_dropShadow_417_301"/>
<feBlend mode="normal" in="SourceGraphic" in2="effect1_dropShadow_417_301" result="shape"/>
</filter>
<linearGradient id="paint0_linear_417_301" x1="63.719" y1="37.0514" x2="52.7778" y2="13.593" gradientUnits="userSpaceOnUse">
<stop/>
<stop offset="1" stop-color="#C2B4B4"/>
</linearGradient>
<linearGradient id="paint1_linear_417_301" x1="48.9684" y1="44.9654" x2="24.7027" y2="35.9553" gradientUnits="userSpaceOnUse">
<stop/>
<stop offset="1" stop-color="#C2B4B4"/>
</linearGradient>
<linearGradient id="paint2_linear_417_301" x1="44.6035" y1="59.8434" x2="21.5637" y2="71.6405" gradientUnits="userSpaceOnUse">
<stop/>
<stop offset="1" stop-color="#C2B4B4"/>
</linearGradient>
<linearGradient id="paint3_linear_417_301" x1="51.7539" y1="74.0491" x2="40.8706" y2="97.5344" gradientUnits="userSpaceOnUse">
<stop/>
<stop offset="1" stop-color="#C2B4B4"/>
</linearGradient>
<linearGradient id="paint4_linear_417_301" x1="66.7807" y1="78.8311" x2="76.3708" y2="102.874" gradientUnits="userSpaceOnUse">
<stop/>
<stop offset="1" stop-color="#C2B4B4"/>
</linearGradient>
<linearGradient id="paint5_linear_417_301" x1="79.0584" y1="42.9601" x2="91.8842" y2="20.4766" gradientUnits="userSpaceOnUse">
<stop/>
<stop offset="1" stop-color="#C2B4B4"/>
</linearGradient>
<linearGradient id="paint6_linear_417_301" x1="84.9836" y1="57.0134" x2="110.507" y2="52.706" gradientUnits="userSpaceOnUse">
<stop/>
<stop offset="1" stop-color="#C2B4B4"/>
</linearGradient>
<linearGradient id="paint7_linear_417_301" x1="80.1885" y1="71.7275" x2="102.331" y2="85.1338" gradientUnits="userSpaceOnUse">
<stop/>
<stop offset="1" stop-color="#C2B4B4"/>
</linearGradient>
<linearGradient id="paint8_linear_417_301" x1="26.8704" y1="85.6175" x2="47.4663" y2="69.9482" gradientUnits="userSpaceOnUse">
<stop stop-color="#C8BABA"/>
<stop offset="1"/>
</linearGradient>
<linearGradient id="paint9_linear_417_301" x1="18.2722" y1="49.8773" x2="43.8402" y2="53.8769" gradientUnits="userSpaceOnUse">
<stop stop-color="#C8BABA"/>
<stop offset="1"/>
</linearGradient>
<linearGradient id="paint10_linear_417_301" x1="38.3251" y1="19.0831" x2="53.0985" y2="40.2401" gradientUnits="userSpaceOnUse">
<stop stop-color="#C8BABA"/>
<stop offset="1"/>
</linearGradient>
<linearGradient id="paint11_linear_417_301" x1="75.3058" y1="12.0974" x2="70.2254" y2="37.3968" gradientUnits="userSpaceOnUse">
<stop stop-color="#C8BABA"/>
<stop offset="1"/>
</linearGradient>
<linearGradient id="paint12_linear_417_301" x1="106.183" y1="35.8518" x2="82.9299" y2="47.0395" gradientUnits="userSpaceOnUse">
<stop stop-color="#C8BABA"/>
<stop offset="1"/>
</linearGradient>
<linearGradient id="paint13_linear_417_301" x1="109.629" y1="71.5692" x2="85.1688" y2="63.3487" gradientUnits="userSpaceOnUse">
<stop stop-color="#C8BABA"/>
<stop offset="1"/>
</linearGradient>
<linearGradient id="paint14_linear_417_301" x1="89.5166" y1="98.4339" x2="76.4964" y2="76.1551" gradientUnits="userSpaceOnUse">
<stop stop-color="#C8BABA"/>
<stop offset="1"/>
</linearGradient>
<linearGradient id="paint15_linear_417_301" x1="56.4163" y1="104.626" x2="60.955" y2="79.2238" gradientUnits="userSpaceOnUse">
<stop stop-color="#C8BABA"/>
<stop offset="1"/>
</linearGradient>
</defs>
</svg>
