<svg width="32" height="33" viewBox="0 0 32 33" fill="none" xmlns="http://www.w3.org/2000/svg">
<g clip-path="url(#clip0_417_369)">
<path d="M5.15253 6.05859H26.712V27.4821H5.15253V6.05859Z" fill="white"/>
<path d="M6.4 26.1V12.692H10.496V26.1H6.4ZM10.624 8.98C10.656 10.132 9.792 11.06 8.416 11.06C7.136 11.06 6.304 10.132 6.304 8.98C6.304 7.796 7.168 6.9 8.48 6.9C9.792 6.9 10.624 7.796 10.624 8.98ZM21.376 26.1V18.676C21.376 16.948 20.8 15.764 19.296 15.764C18.176 15.764 17.504 16.564 17.184 17.332C17.088 17.62 17.056 18.004 17.056 18.388V26.1H12.96V16.98C12.96 15.316 12.896 13.908 12.864 12.692H16.416L16.608 14.58H16.672C17.216 13.684 18.56 12.404 20.768 12.404C23.456 12.404 25.504 14.228 25.504 18.196V26.1H21.376ZM32 3.316C32 1.78 30.72 0.5 29.184 0.5H2.816C1.28 0.5 0 1.78 0 3.316V29.684C0 31.22 1.28 32.5 2.816 32.5H29.184C30.72 32.5 32 31.22 32 29.684V3.316Z" fill="#1D87BD"/>
</g>
<defs>
<clipPath id="clip0_417_369">
<rect width="32" height="32" fill="white" transform="translate(0 0.5)"/>
</clipPath>
</defs>
</svg>
