<svg width="32" height="33" viewBox="0 0 32 33" fill="none" xmlns="http://www.w3.org/2000/svg">
<g clip-path="url(#clip0_417_366)">
<path d="M27.2 0.5H4.8C2.14903 0.5 0 2.64903 0 5.3V27.7C0 30.351 2.14903 32.5 4.8 32.5H27.2C29.851 32.5 32 30.351 32 27.7V5.3C32 2.64903 29.851 0.5 27.2 0.5Z" fill="#BD081B"/>
<path d="M16.5625 4C9.75 4 6.3125 8.875 6.3125 13C6.3125 15.4375 7.25 17.625 9.25 18.4375C9.5625 18.5625 9.875 18.4375 10 18.125L10.25 16.9375C10.375 16.5625 10.3125 16.4375 10.0625 16.125C9.5 15.4375 9.125 14.5625 9.125 13.3125C9.125 9.6875 11.8125 6.4375 16.1875 6.4375C20.0625 6.4375 22.1875 8.8125 22.1875 11.9375C22.1875 16.125 20.3125 19.5625 17.625 19.5625C16.125 19.5625 15 18.375 15.375 16.8125C15.75 15 16.625 13.0625 16.625 11.75C16.625 10.5625 16 9.5625 14.6875 9.5625C13.125 9.5625 11.9375 11.1875 11.9375 13.3125C11.9375 14.625 12.375 15.5625 12.375 15.5625L10.5 23.375C10 25.6875 10.4375 28.5625 10.5 28.8125C10.5 29 10.75 29.0625 10.8125 28.9375C10.9375 28.75 12.8125 26.5 13.4375 24.25L14.4375 20.25C14.9375 21.25 16.375 22.0625 17.9375 22.0625C22.5625 22.0625 25.6875 17.875 25.6875 12.25C25.6875 7.9375 22.0625 4 16.5625 4Z" fill="white"/>
</g>
<defs>
<clipPath id="clip0_417_366">
<rect width="32" height="32" fill="white" transform="translate(0 0.5)"/>
</clipPath>
</defs>
</svg>
