<svg width="512" height="512" viewBox="0 0 512 512" fill="none" xmlns="http://www.w3.org/2000/svg">
<g clip-path="url(#clip0_525_1505)">
<rect width="512" height="512" rx="64" fill="white"/>
<path d="M512.917 447.972C512.917 483.321 484.203 511.993 448.8 511.993H64.1172C28.7145 511.993 0 483.321 0 447.972V63.8652C0 28.5159 28.7145 -0.15625 64.1172 -0.15625H448.8C484.203 -0.15625 512.917 28.5159 512.917 63.8652V447.972Z" fill="url(#paint0_linear_525_1505)"/>
<path d="M263.733 386.699C263.733 386.699 319.039 386.698 372.074 384.01C425.109 381.322 434.805 366.677 439.882 321.258C446.591 261.162 439.21 181.269 439.21 181.269C439.21 181.269 438.538 132.256 382.816 130.25C327.093 128.234 263.818 127.562 263.818 127.562H252.288C252.288 127.562 189.013 128.234 133.29 130.25C77.5675 132.266 76.8953 181.269 76.8953 181.269C76.8953 181.269 69.5141 261.162 76.2234 321.258C81.3008 366.677 90.9967 381.333 144.031 384.01C197.066 386.698 252.373 386.699 252.373 386.699H263.733Z" fill="white"/>
<path d="M219.906 204.094V308.798L319.266 257.129L219.906 204.094Z" fill="#DA281E"/>
<path d="M219.906 204.094L307 263.507L319.266 257.129L219.906 204.094Z" fill="#C9221B"/>
</g>
<defs>
<linearGradient id="paint0_linear_525_1505" x1="256.451" y1="-0.147183" x2="256.451" y2="511.988" gradientUnits="userSpaceOnUse">
<stop stop-color="#F93C2D"/>
<stop offset="1" stop-color="#D32D20"/>
</linearGradient>
<clipPath id="clip0_525_1505">
<rect width="512" height="512" rx="64" fill="white"/>
</clipPath>
</defs>
</svg>
